<?xml version="1.0" standalone="no"?>
<!DOCTYPE svg PUBLIC "-//W3C//DTD SVG 20010904//EN" "http://www.w3.org/TR/2001/REC-SVG-20010904/DTD/svg10.dtd">
<svg version="1.0" xmlns="http://www.w3.org/2000/svg"
    width="256.000000pt" height="256.000000pt" viewBox="0 0 256.000000 256.000000"
    preserveAspectRatio="xMidYMid meet">

    <g transform="translate(0.000000,256.000000) scale(0.100000,-0.100000)"
        fill="#FFFFFF" stroke="none">
        <path
            d="M1142 2159 c-271 -4 -500 -10 -507 -13 -22 -8 -305 -366 -305 -386 0
-20 30 -50 51 -50 20 0 55 38 184 200 l107 135 177 6 c97 4 313 7 481 8 l305
1 160 -170 c88 -94 159 -177 157 -185 -6 -33 -315 -971 -321 -978 -4 -4 -261
-39 -571 -78 -589 -74 -601 -75 -654 -36 -18 13 -18 17 -1 113 9 54 20 102 24
106 3 4 159 17 346 29 187 12 351 27 365 33 35 15 39 60 8 79 -22 14 -179 7
-624 -28 l-82 -6 19 103 c10 57 19 115 19 129 0 35 -30 60 -80 66 l-41 6 42
43 43 44 86 0 c101 0 119 10 144 74 l18 46 98 0 98 0 12 -37 c24 -73 42 -83
145 -83 108 0 127 10 145 75 7 25 16 48 21 50 4 3 117 21 251 40 273 40 275
40 287 63 11 21 -3 60 -24 68 -18 7 -528 -63 -567 -78 -25 -9 -58 -67 -58
-103 0 -11 -12 -15 -49 -15 l-49 0 -22 54 c-27 69 -46 76 -190 76 -144 0 -163
-8 -191 -76 l-23 -54 -47 0 c-46 0 -48 1 -75 47 -15 27 -28 49 -30 51 -1 2
-21 -8 -44 -23 l-41 -26 20 -35 21 -35 -80 -85 c-67 -71 -80 -90 -80 -118 0
-46 28 -68 95 -74 31 -2 55 -9 55 -15 0 -7 -20 -128 -46 -270 -41 -233 -44
-261 -30 -281 16 -26 152 -86 193 -86 16 0 289 32 607 72 509 63 582 75 603
93 18 15 63 143 193 541 94 287 170 532 170 546 0 35 -382 440 -412 436 -7 -1
-235 -5 -506 -9z" />
    </g>
</svg>